<?xml version="1.0" encoding="UTF-8"?>
<svg version="1.1" xmlns="http://www.w3.org/2000/svg" width="300" height="147">
  <path
    d="M0 0 C1.13445053 -0.00700928 2.26890106 -0.01401855 3.43772888 -0.02124023 C7.16349215 -0.03875419 10.8884877 -0.02722329 14.61425781 -0.01367188 C17.21258693 -0.01636791 19.81091505 -0.02025126 22.40924072 -0.02526855 C27.84275909 -0.03115406 33.27599147 -0.0230127 38.70947266 -0.00390625 C44.98370937 0.01790237 51.2574269 0.01077368 57.53165126 -0.01121187 C63.58388981 -0.03156672 69.63587495 -0.02939431 75.6881485 -0.01768494 C78.25739871 -0.0150163 80.82666219 -0.01829217 83.39589691 -0.02760315 C86.98173804 -0.03775094 90.56657735 -0.02229263 94.15234375 0 C95.21426437 -0.00809692 96.276185 -0.01619385 97.37028503 -0.02453613 C104.56255771 0.05838514 104.56255771 0.05838514 108.45269775 2.42492676 C110.68913168 4.934775 111.25754907 5.97907442 111.62988281 9.33007812 C111.24181135 13.28840705 110.14300876 14.77044178 107.31738281 17.51757812 C104.36680915 18.52270813 101.61001417 18.65188603 98.50848389 18.67579651 C97.54377167 18.68558533 96.57905945 18.69537415 95.58511353 18.70545959 C94.53351044 18.71121506 93.48190735 18.71697052 92.3984375 18.72290039 C91.28594635 18.73279999 90.1734552 18.74269958 89.0272522 18.75289917 C85.34794243 18.78450128 81.66861974 18.80926664 77.98925781 18.83398438 C75.43906314 18.854555 72.88887188 18.8755515 70.33868408 18.8969574 C64.31104143 18.94652298 58.2833813 18.99179123 52.25569081 19.03497976 C45.39233601 19.08439549 38.52902852 19.13929751 31.66571951 19.19465935 C17.54965145 19.30840161 3.43353795 19.41525748 -10.68261719 19.51757812 C-10.35261719 21.16757812 -10.02261719 22.81757813 -9.68261719 24.51757812 C-8.60367187 24.52168701 -7.52472656 24.5257959 -6.41308594 24.5300293 C-2.37957096 24.55193205 1.65298388 24.60633518 5.68603516 24.67016602 C7.42584984 24.69324947 9.16580234 24.70771893 10.90576172 24.71313477 C13.4188327 24.72249578 15.92976483 24.7636368 18.44238281 24.81054688 C19.21042236 24.80661423 19.97846191 24.80268158 20.76977539 24.79862976 C27.89358917 24.98768765 32.82658336 27.89568396 37.69238281 33.01757812 C41.93370742 39.5426929 42.42877935 46.15986752 42.52270508 53.80810547 C42.53260468 54.51123871 42.54250427 55.21437195 42.55270386 55.93881226 C42.58408154 58.24368011 42.6089815 60.54856851 42.63378906 62.85351562 C42.65437914 64.45920319 42.67537613 66.06488558 42.69676208 67.67056274 C42.75177081 71.88234247 42.80127294 76.09416939 42.84960938 80.30603027 C42.89997988 84.60966151 42.95558452 88.91322481 43.01074219 93.21679688 C43.11806419 101.65033307 43.21956602 110.08392635 43.31738281 118.51757812 C45.83701412 115.22047014 48.35469729 111.9218793 50.87207031 108.62304688 C51.57549561 107.70261597 52.2789209 106.78218506 53.00366211 105.8338623 C57.54680704 99.87802187 62.02362981 93.8786935 66.44238281 87.83007812 C71.52643782 80.89087791 76.74256464 74.07374852 82.05249023 67.30615234 C86.97399539 61.01199189 91.72982408 54.60443279 96.43652344 48.1484375 C99.25706695 44.28500396 102.09786113 40.43674242 104.98535156 36.62304688 C105.5308667 35.89883545 106.07638184 35.17462402 106.63842773 34.4284668 C109.93467638 30.67686899 113.62224987 28.69175338 118.61425781 28.36914062 C123.82019622 28.70106287 127.372061 29.9919714 131.31738281 33.51757812 C137.72203559 41.13792888 142.86331522 49.89067153 148.25097656 58.24023438 C151.34760306 63.03253846 154.46959659 67.80758175 157.60253906 72.57617188 C158.07210022 73.29211014 158.54166138 74.0080484 159.02545166 74.74568176 C161.48891393 78.49815473 163.96514441 82.24119937 166.46435547 85.9699707 C171.32669628 93.25166011 175.97167546 100.54009922 180.18066406 108.22070312 C186.65325899 121.04110973 186.65325899 121.04110973 197.29443359 129.76953125 C204.5304079 131.1640397 211.20906947 130.07684872 218.31738281 128.51757812 C220.2882924 128.19970504 222.25963954 127.88453137 224.23144531 127.57226562 C232.95679541 125.96607176 239.5117071 120.54864157 244.80957031 113.54492188 C256.06518087 96.77350217 255.57312798 73.27518048 252.12988281 54.08007812 C249.11407973 41.93347955 244.65610507 30.75492322 233.61816406 23.82226562 C227.2942219 20.5910543 222.1639005 19.36916584 215.06982422 19.35986328 C214.22885696 19.35478256 213.38788971 19.34970184 212.5214386 19.34446716 C210.69462755 19.33376532 208.86780341 19.32514441 207.04097366 19.31834793 C204.14926549 19.3065604 201.25770676 19.28710818 198.36605835 19.26522827 C190.14415455 19.20360501 181.92226629 19.14955345 173.70019531 19.11621094 C168.67158332 19.09526895 163.64324418 19.05997013 158.61478806 19.01545334 C156.69868557 19.00129014 154.78253481 18.99257018 152.8663826 18.98939896 C150.18520797 18.98449167 147.50475792 18.96133881 144.82373047 18.93408203 C144.03290573 18.93708817 143.24208099 18.9400943 142.42729187 18.94319153 C137.88635483 18.87461725 134.90691633 18.36654632 131.31738281 15.51757812 C128.97569517 12.00504667 128.82114604 10.65288457 129.31738281 6.51757812 C131.11732056 3.81767151 132.40115581 1.97569163 135.31738281 0.51757812 C137.93372349 0.40886561 140.52384617 0.36025849 143.14086914 0.35644531 C143.94933289 0.35148041 144.75779663 0.3465155 145.59075928 0.34140015 C148.27698614 0.32674866 150.96315372 0.31996752 153.64941406 0.31445312 C155.52113343 0.30869906 157.39285279 0.30294136 159.26457214 0.29718018 C163.19974034 0.28665826 167.13488807 0.28082506 171.07006836 0.27734375 C176.08197553 0.27189142 181.09360655 0.247939 186.10542774 0.2193718 C189.97908781 0.20061662 193.85268351 0.19553276 197.72638512 0.19400787 C199.57172829 0.19100395 201.41707096 0.18305301 203.26236916 0.16982269 C222.0356156 0.0449601 237.73276473 2.38506364 251.89941406 15.85351562 C262.5789191 27.61994929 268.02217365 41.87812965 270.31738281 57.51757812 C270.42824219 58.23171875 270.53910156 58.94585937 270.65332031 59.68164062 C273.36278301 80.9911986 271.72137116 105.30612449 259.31738281 123.51757812 C249.36284521 136.11113545 238.2681962 144.29628633 222.09936523 146.57080078 C218.17832373 147.02885227 214.25886717 147.30662755 210.31738281 147.51757812 C208.90271729 147.59347168 208.90271729 147.59347168 207.45947266 147.67089844 C204.49514957 147.80619343 201.53404085 147.89071957 198.56738281 147.95507812 C197.63869385 147.98964111 196.71000488 148.0242041 195.75317383 148.05981445 C191.39496037 148.08651284 188.91062435 147.86519181 185.09082031 145.62695312 C181.22382361 141.77561504 178.51318775 136.9615886 175.69238281 132.33007812 C174.44130589 130.32131364 173.18868259 128.31351148 171.93457031 126.30664062 C171.31807617 125.31567383 170.70158203 124.32470703 170.06640625 123.30371094 C167.71560948 119.55897438 165.28354082 115.87452203 162.81738281 112.20507812 C162.35638184 111.51704102 161.89538086 110.82900391 161.42041016 110.12011719 C160.36721302 108.54935084 159.31328133 106.97907687 158.25878906 105.40917969 C153.93669232 98.97169052 149.62509731 92.52719807 145.31738281 86.08007812 C144.83650208 85.36094238 144.35562134 84.64180664 143.86016846 83.90087891 C137.69509558 74.67602998 131.59004181 65.42545326 125.81738281 55.94750977 C123.61445185 52.36902971 121.47963037 49.35194287 118.31738281 46.51757812 C118.06214844 47.07574219 117.80691406 47.63390625 117.54394531 48.20898438 C116.14317408 50.84546782 114.50101729 53.07731735 112.69238281 55.45507812 C112.30977295 55.96031006 111.92716309 56.46554199 111.53295898 56.98608398 C110.13200277 58.83317724 108.72521132 60.67571729 107.31738281 62.51757812 C104.75420553 65.8712282 102.19147958 69.22522057 99.62988281 72.58007812 C98.94095947 73.48201904 98.25203613 74.38395996 97.54223633 75.31323242 C93.01287829 81.25600715 88.54708481 87.24107058 84.12988281 93.26757812 C78.76164706 100.58940817 73.29947063 107.8303591 67.76269531 115.02539062 C65.19744203 118.36067285 62.65568929 121.71289158 60.12207031 125.07226562 C59.40712402 126.0179541 58.69217773 126.96364258 57.95556641 127.93798828 C56.56230226 129.78178041 55.1718587 131.62770838 53.78466797 133.47607422 C49.72239525 138.84155271 45.96569107 143.75203928 40.31738281 147.51757812 C35.81423124 148.11233399 33.86680278 147.87003622 30.00488281 145.39257812 C24.99086818 140.02874852 25.01930808 134.37487739 25.0144043 127.40698242 C25.00596497 126.51038406 24.99752563 125.61378571 24.98883057 124.6900177 C24.96313783 121.74060512 24.95093534 118.79129236 24.93847656 115.84179688 C24.92229839 113.79009716 24.90511806 111.73840511 24.88697815 109.6867218 C24.84136109 104.29657528 24.80651166 98.90641854 24.77478027 93.51617432 C24.72282592 84.87055493 24.65793429 76.22504763 24.58656502 67.57956886 C24.56366607 64.55433285 24.54744208 61.52911133 24.53184509 58.50382996 C24.51844603 56.66295203 24.5048319 54.82207565 24.4909668 52.98120117 C24.48835342 52.13395477 24.48574005 51.28670837 24.48304749 50.41378784 C24.8104246 46.65991652 24.8104246 46.65991652 23.31738281 43.51757812 C20.74646448 43.40677748 18.19791356 43.35594146 15.62597656 43.34179688 C14.02505229 43.31857587 12.42414082 43.29445765 10.82324219 43.26953125 C8.29768601 43.23457968 5.77259342 43.20517294 3.24682617 43.19165039 C0.81013227 43.17604748 -1.62519617 43.13573759 -4.06152344 43.09179688 C-4.80455215 43.09370529 -5.54758087 43.09561371 -6.31312561 43.09757996 C-12.68213265 42.95107602 -17.85934448 40.95387716 -22.70605469 36.77148438 C-27.70507618 30.51548349 -29.57262164 25.59714981 -28.68261719 17.51757812 C-26.82586611 11.75187741 -24.09401952 6.61670992 -18.84382248 3.38611603 C-12.4944442 0.34196257 -6.9747827 -0.05358988 0 0 Z "
    fill="#000000" transform="translate(28.6826171875,-0.517578125)" />
  <path
    d="M0 0 C2.48470479 3.46841044 2.77956089 6.83370231 2.5390625 11.0234375 C1.60339317 15.32209226 -0.35847956 18.04997909 -4 20.5 C-8.42898926 22.02369862 -11.8806027 21.85905196 -16.3125 20.4375 C-19.58165967 18.08066396 -21.19531421 16.10937158 -23 12.5 C-23.87138559 6.5092241 -22.3029362 3.31284989 -19 -1.5 C-12.40254439 -5.89830374 -5.96387759 -4.96989799 0 0 Z "
    fill="#000000" transform="translate(157,89.5)" />
</svg>